<svg xmlns="http://www.w3.org/2000/svg" version="1.1" xmlns:xlink="http://www.w3.org/1999/xlink" xmlns:svgjs="http://svgjs.com/svgjs" width="1440" height="592" preserveAspectRatio="none" viewBox="0 0 1440 592"><g mask="url(&quot;#SvgjsMask1418&quot;)" fill="none"><rect width="1440" height="592" x="0" y="0" fill="rgba(5, 22, 40, 1)"></rect><g transform="translate(144, -59.2)" stroke-linecap="round" stroke="url(#SvgjsRadialGradient1419)"><path d="M197.5 285.975 L197.5 306.025" stroke-width="41.25"></path><path d="M252.5 244.975 L252.5 347.025" stroke-width="41.25"></path><path d="M307.5 253.435 L307.5 338.565" stroke-width="41.25"></path><path d="M362.5 229.735 L362.5 362.265" stroke-width="41.25"></path><path d="M417.5 277.355 L417.5 314.645" stroke-width="41.25"></path><path d="M472.5 187.435 L472.5 404.565" stroke-width="41.25"></path><path d="M527.5 216.375 L527.5 375.625" stroke-width="41.25"></path><path d="M582.5 256.54499999999996 L582.5 335.455" stroke-width="41.25"></path><path d="M637.5 210.185 L637.5 251.435" stroke-width="41.25"></path><path d="M637.5 313.31 L637.5 381.815" stroke-width="41.25"></path><path d="M692.5 180.845 L692.5 411.145" stroke-width="41.25"></path><path d="M747.5 186.215 L747.5 268.71500000000003" stroke-width="41.25"></path><path d="M747.5 330.59000000000003 L747.5 405.775" stroke-width="41.25"></path><path d="M802.5 121.545 L802.5 245.29500000000002" stroke-width="41.25"></path><path d="M802.5 307.17 L802.5 470.455" stroke-width="41.25"></path><path d="M857.5 137.135 L857.5 219.635" stroke-width="41.25"></path><path d="M857.5 281.51 L857.5 454.865" stroke-width="41.25"></path><path d="M912.5 125.025 L912.5 331.275" stroke-width="41.25"></path><path d="M912.5 393.15 L912.5 466.975" stroke-width="41.25"></path><path d="M967.5 177.465 L967.5 414.535" stroke-width="41.25"></path><path d="M1022.5 120.625 L1022.5 161.875" stroke-width="41.25"></path><path d="M1022.5 223.75 L1022.5 265" stroke-width="41.25"></path><path d="M1022.5 326.875 L1022.5 471.375" stroke-width="41.25"></path><path d="M1077.5 230.475 L1077.5 361.525" stroke-width="41.25"></path><path d="M1132.5 161.665 L1132.5 244.165" stroke-width="41.25"></path><path d="M1132.5 306.03999999999996 L1132.5 430.335" stroke-width="41.25"></path><path d="M1187.5 249.795 L1187.5 342.205" stroke-width="41.25"></path><path d="M1242.5 278.125 L1242.5 313.875" stroke-width="41.25"></path></g></g><defs><mask id="SvgjsMask1418"><rect width="1440" height="592" fill="#ffffff"></rect></mask><radialGradient cx="165.60000000000002" cy="523.92" r="1198.84" gradientUnits="userSpaceOnUse" id="SvgjsRadialGradient1419"><stop stop-color="#3a7cc3" offset="0"></stop><stop stop-color="rgba(234, 29, 29, 1)" offset="1"></stop></radialGradient></defs></svg>