<svg xmlns="http://www.w3.org/2000/svg" version="1.1" xmlns:xlink="http://www.w3.org/1999/xlink" xmlns:svgjs="http://svgjs.com/svgjs" width="400" height="600" preserveAspectRatio="none" viewBox="0 0 400 600"><g mask="url(&quot;#SvgjsMask1618&quot;)" fill="none"><rect width="400" height="600" x="0" y="0" fill="rgba(5, 22, 40, 1)"></rect><g transform="translate(20, -54)" stroke-linecap="round" stroke="url(#SvgjsRadialGradient1619)"><path d="M67 146.57 L67 175.07" stroke-width="28.5"></path><path d="M67 217.82 L67 360.32" stroke-width="28.5"></path><path d="M67 403.07 L67 453.43" stroke-width="28.5"></path><path d="M105 84.65 L105 227.15" stroke-width="28.5"></path><path d="M105 269.9 L105 412.4" stroke-width="28.5"></path><path d="M105 455.15 L105 515.35" stroke-width="28.5"></path><path d="M143 173.51 L143 259.01" stroke-width="28.5"></path><path d="M143 301.76 L143 330.26" stroke-width="28.5"></path><path d="M143 373.01 L143 426.49" stroke-width="28.5"></path><path d="M181 238.78 L181 267.28" stroke-width="28.5"></path><path d="M181 310.03 L181 361.22" stroke-width="28.5"></path><path d="M219 184.57 L219 241.57" stroke-width="28.5"></path><path d="M219 284.32 L219 415.43" stroke-width="28.5"></path><path d="M257 270.7 L257 329.3" stroke-width="28.5"></path><path d="M295 90.34 L295 204.34" stroke-width="28.5"></path><path d="M295 247.09 L295 361.09000000000003" stroke-width="28.5"></path><path d="M295 403.84000000000003 L295 509.65999999999997" stroke-width="28.5"></path><path d="M333 83.94 L333 397.44" stroke-width="28.5"></path><path d="M333 440.19 L333 516.06" stroke-width="28.5"></path></g></g><defs><mask id="SvgjsMask1618"><rect width="400" height="600" fill="#ffffff"></rect></mask><radialGradient cx="46" cy="531" r="555.25" gradientUnits="userSpaceOnUse" id="SvgjsRadialGradient1619"><stop stop-color="#3a7cc3" offset="0"></stop><stop stop-color="rgba(234, 29, 29, 1)" offset="1"></stop></radialGradient></defs></svg>